<svg width="175" height="173" viewBox="0 0 175 173" fill="none" xmlns="http://www.w3.org/2000/svg">
<path d="M56.6115 15.0489C60.0574 16.7718 64.2416 15.5411 66.2107 12.0953C67.9336 8.64943 66.7029 4.46518 63.2571 2.49612C62.0264 2.00386 60.7958 1.5116 59.5651 1.75773C58.0883 2.24999 56.8577 2.74225 55.627 3.23452C54.8886 3.72678 54.1502 4.46518 53.6579 5.44971C51.935 9.14169 53.1657 13.3259 56.6115 15.0489Z" fill="#00BE7E" fill-opacity="0.5"/>
<path d="M53.4118 35.9699C55.1348 32.524 53.9041 28.3398 50.4583 26.3707C47.0124 24.6478 42.8282 25.8785 40.8591 29.3243C39.1362 32.7702 40.3668 36.9544 43.8127 38.9235C47.2585 40.8925 51.6889 39.4157 53.4118 35.9699Z" fill="#00BE7E" fill-opacity="0.5"/>
<path d="M40.6111 59.8452C42.334 56.3994 41.1033 52.2151 37.6575 50.2461C34.2116 48.5232 30.0274 49.7538 28.0583 53.1997C26.3354 56.6455 27.5661 60.8298 31.0119 62.7988C34.7039 64.5217 38.8881 63.2911 40.6111 59.8452Z" fill="#00BE7E" fill-opacity="0.5"/>
<path d="M27.8122 83.7199C29.5352 80.274 28.3045 76.0898 24.8587 74.1207C21.4128 72.3978 17.2286 73.6285 15.2595 77.0743C13.5366 80.5202 14.7672 84.7044 18.2131 86.6734C21.9051 88.3964 26.0893 87.1657 27.8122 83.7199Z" fill="#00BE7E" fill-opacity="0.5"/>
<path d="M15.2599 107.348C16.9828 103.902 15.7521 99.7181 12.3063 97.749C8.86045 96.0261 4.6762 97.2568 2.70714 100.703C2.21488 101.687 1.96875 102.672 1.96875 103.41C2.21488 104.887 2.70714 106.117 2.95327 107.594C3.69167 108.579 4.43007 109.563 5.66073 110.056C9.10658 112.025 13.2908 110.794 15.2599 107.348Z" fill="#00BE7E" fill-opacity="0.5"/>
<path d="M38.6435 12.8338C38.6435 12.5877 38.8896 12.3416 38.8896 12.3416C36.9205 13.5722 34.9515 15.049 32.9824 16.5258C35.1976 16.2797 37.4128 15.049 38.6435 12.8338Z" fill="#00BE7E" fill-opacity="0.5"/>
<path d="M16.2445 39.4159C19.6903 41.1388 23.8746 39.9082 25.8436 36.4623C27.5666 33.0165 26.3359 28.8322 22.8901 26.8632C22.6439 26.6171 22.3978 26.6171 22.1517 26.6171C19.1981 30.0629 16.4906 33.5087 14.0293 37.4469C14.5216 38.1853 15.5061 38.9237 16.2445 39.4159Z" fill="#00BE7E" fill-opacity="0.5"/>
<path d="M3.69153 63.2909C7.13738 65.0138 11.3216 63.7831 13.2907 60.3373C15.0136 56.8914 13.7829 52.7072 10.3371 50.7381C9.35256 50.2459 8.36804 49.9998 7.38351 49.9998C5.66058 54.184 4.18378 58.3682 2.95312 62.7986C3.19926 63.0447 3.4454 63.0447 3.69153 63.2909Z" fill="#00BE7E" fill-opacity="0.5"/>
<path d="M0.246128 77.5664C-3.75934e-06 80.0277 0 82.489 0 84.7042C0 84.4581 0.246128 84.212 0.246128 84.212C1.47679 81.9968 1.47679 79.5355 0.246128 77.5664Z" fill="#00BE7E" fill-opacity="0.5"/>
<path d="M151.617 35.4779C154.079 36.9547 157.278 36.4624 159.247 34.7395C156.54 31.0475 153.586 27.3555 150.387 23.9097C149.648 24.4019 149.156 25.1403 148.664 25.8787C146.941 29.3246 148.172 33.755 151.617 35.4779Z" fill="#00BE7E" fill-opacity="0.5"/>
<path d="M136.112 49.7532C134.389 53.1991 135.62 57.3833 139.066 59.3524C142.511 61.0753 146.696 59.8447 148.665 56.3988C150.388 52.953 149.157 48.7687 145.711 46.7997C142.265 45.0767 137.835 46.3074 136.112 49.7532Z" fill="#00BE7E" fill-opacity="0.5"/>
<path d="M123.312 73.6279C121.589 77.0737 122.82 81.258 126.266 83.227C129.712 84.95 133.896 83.7193 135.865 80.2735C137.588 76.8276 136.357 72.6434 132.911 70.6743C129.466 68.9514 125.281 70.182 123.312 73.6279Z" fill="#00BE7E" fill-opacity="0.5"/>
<path d="M110.513 97.257C108.79 100.703 110.021 104.887 113.467 106.856C116.913 108.579 121.097 107.348 123.066 103.903C124.789 100.457 123.558 96.2725 120.113 94.3035C116.667 92.5805 112.482 93.8112 110.513 97.257Z" fill="#00BE7E" fill-opacity="0.5"/>
<path d="M97.7146 121.132C95.9917 124.578 97.2223 128.762 100.668 130.731C104.114 132.454 108.298 131.223 110.267 127.777C111.99 124.331 110.76 120.147 107.314 118.178C103.868 116.455 99.6836 117.686 97.7146 121.132Z" fill="#00BE7E" fill-opacity="0.5"/>
<path d="M85.1619 145.006C83.4389 148.452 84.6696 152.636 88.1154 154.605C91.5613 156.328 95.7455 155.098 97.7146 151.652C99.4375 148.206 98.2069 144.022 94.761 142.053C91.069 140.33 86.8848 141.56 85.1619 145.006Z" fill="#00BE7E" fill-opacity="0.5"/>
<path d="M81.7164 165.928C78.2706 164.205 74.0863 165.436 72.1173 168.882C71.625 169.62 71.3789 170.605 71.3789 171.343C76.0554 172.328 80.7319 172.574 85.4084 172.82C85.6546 169.866 84.4239 167.159 81.7164 165.928Z" fill="#00BE7E" fill-opacity="0.5"/>
<path d="M121.344 26.3711C119.622 29.8169 120.852 34.0012 124.298 35.9702C127.744 37.6932 131.928 36.4625 133.897 33.0167C135.62 29.5708 134.389 25.3866 130.944 23.4175C127.252 21.6946 123.067 23.1714 121.344 26.3711Z" fill="#00BE7E" fill-opacity="0.5"/>
<path d="M120.849 56.891C122.572 53.4452 121.342 49.2609 117.896 47.2919C114.45 45.5689 110.266 46.7996 108.297 50.2455C106.574 53.6913 107.804 57.8755 111.25 59.8446C114.696 61.5675 119.126 60.3369 120.849 56.891Z" fill="#00BE7E" fill-opacity="0.5"/>
<path d="M108.053 80.7664C109.776 77.3205 108.546 73.1363 105.1 71.1672C101.654 69.4443 97.4698 70.675 95.5007 74.1208C93.7778 77.5667 95.0085 81.7509 98.4543 83.72C102.146 85.4429 106.331 84.2122 108.053 80.7664Z" fill="#00BE7E" fill-opacity="0.5"/>
<path d="M95.2546 104.395C96.9775 100.949 95.7469 96.7645 92.301 94.7954C88.8552 93.0725 84.671 94.3031 82.7019 97.749C80.979 101.195 82.2096 105.379 85.6555 107.348C89.3475 109.071 93.5317 107.84 95.2546 104.395Z" fill="#00BE7E" fill-opacity="0.5"/>
<path d="M70.1472 121.624C68.4243 125.069 69.6549 129.254 73.1008 131.223C76.5466 132.946 80.7309 131.715 82.6999 128.269C84.4229 124.823 83.1922 120.639 79.7464 118.67C76.3005 116.947 72.1163 118.178 70.1472 121.624Z" fill="#00BE7E" fill-opacity="0.5"/>
<path d="M57.5954 145.499C55.8725 148.945 57.1032 153.129 60.549 155.098C63.9949 156.821 68.1791 155.59 70.1482 152.145C71.8711 148.699 70.6404 144.514 67.1946 142.545C63.5026 140.822 59.3184 142.053 57.5954 145.499Z" fill="#00BE7E" fill-opacity="0.5"/>
<path d="M165.893 96.2722C164.17 99.7181 165.401 103.902 168.847 105.871C170.078 106.61 171.554 106.856 172.785 106.61C174.016 102.179 174.754 97.749 175 93.3186C171.554 91.5957 167.616 93.0725 165.893 96.2722Z" fill="#00BE7E" fill-opacity="0.5"/>
<path d="M162.449 117.194C159.003 115.471 154.818 116.701 152.849 120.147C151.126 123.593 152.357 127.777 155.803 129.746C158.264 131.223 161.464 130.731 163.433 129.008C163.925 128.27 164.418 127.285 164.91 126.547C165.402 125.808 165.648 124.824 166.14 124.085C166.387 121.378 165.156 118.67 162.449 117.194Z" fill="#00BE7E" fill-opacity="0.5"/>
<path d="M140.294 143.776C138.571 146.975 139.802 151.16 143.001 153.129C146.447 150.421 149.647 147.222 152.847 143.776C152.108 142.545 151.124 141.561 149.893 140.822C146.447 139.099 142.017 140.33 140.294 143.776Z" fill="#00BE7E" fill-opacity="0.5"/>
<path d="M166.63 58.6142C168.107 59.3526 170.076 59.5987 171.553 59.3526C170.076 54.9222 168.599 50.738 166.384 46.5537C165.399 47.2921 164.415 48.0305 163.677 49.2612C161.954 52.707 163.184 56.8913 166.63 58.6142Z" fill="#00BE7E" fill-opacity="0.5"/>
<path d="M150.88 73.1361C149.157 76.5819 150.387 80.7662 153.833 82.7352C157.279 84.4581 161.463 83.2275 163.432 79.7816C165.401 76.3358 163.925 72.1515 160.479 70.1825C157.033 68.2134 152.849 69.6902 150.88 73.1361Z" fill="#00BE7E" fill-opacity="0.5"/>
<path d="M138.081 96.7647C136.358 100.211 137.589 104.395 141.034 106.364C144.48 108.087 148.664 106.856 150.634 103.41C152.356 99.9644 151.126 95.7802 147.68 93.8111C144.234 92.0882 140.05 93.3189 138.081 96.7647Z" fill="#00BE7E" fill-opacity="0.5"/>
<path d="M125.526 120.639C123.803 124.085 125.034 128.27 128.48 130.239C131.926 131.962 136.11 130.731 138.079 127.285C139.802 123.839 138.571 119.655 135.125 117.686C131.433 115.963 127.249 117.194 125.526 120.639Z" fill="#00BE7E" fill-opacity="0.5"/>
<path d="M112.73 144.268C111.007 147.714 112.238 151.898 115.684 153.867C119.13 155.59 123.314 154.359 125.283 150.914C127.006 147.468 125.775 143.283 122.329 141.314C118.884 139.591 114.453 141.068 112.73 144.268Z" fill="#00BE7E" fill-opacity="0.5"/>
<path d="M99.9303 168.143C99.1919 169.374 98.9458 170.604 99.1919 171.835C103.868 171.343 108.299 170.358 112.729 168.881C112.237 167.405 111.006 165.928 109.529 165.189C106.084 163.467 101.653 164.697 99.9303 168.143Z" fill="#00BE7E" fill-opacity="0.5"/>
<path d="M109.282 12.8339C112.728 14.5568 116.912 13.3262 118.881 9.88031C120.112 7.66513 119.866 5.20381 118.881 2.98862C115.928 1.75796 112.974 0.77343 109.774 0.0350342C108.544 0.77343 107.313 1.75796 106.574 2.98862C104.605 6.6806 105.836 10.8648 109.282 12.8339Z" fill="#00BE7E" fill-opacity="0.5"/>
<path d="M106.082 33.7548C107.805 30.3089 106.574 26.1247 103.128 24.1556C99.6823 22.4327 95.4981 23.6634 93.529 27.1092C91.8061 30.5551 93.0368 34.7393 96.4826 36.7084C99.9285 38.4313 104.113 36.9545 106.082 33.7548Z" fill="#00BE7E" fill-opacity="0.5"/>
<path d="M93.2849 57.3839C95.0078 53.9381 93.7772 49.7538 90.3313 47.7848C86.8855 46.0619 82.7012 47.2925 80.7322 50.7384C79.0092 54.1842 80.2399 58.3685 83.6858 60.3375C87.1316 62.0604 91.3159 60.8298 93.2849 57.3839Z" fill="#00BE7E" fill-opacity="0.5"/>
<path d="M80.4851 81.2586C82.208 77.8127 80.9774 73.6285 77.5315 71.6594C74.0857 69.9365 69.9014 71.1672 67.9324 74.613C66.2094 78.0589 67.4401 82.2431 70.8859 84.2121C74.3318 85.9351 78.7622 84.7044 80.4851 81.2586Z" fill="#00BE7E" fill-opacity="0.5"/>
<path d="M67.6863 104.887C69.4092 101.441 68.1785 97.2568 64.7327 95.2877C61.2868 93.5648 57.1026 94.7955 55.1335 98.2413C53.4106 101.687 54.6413 105.871 58.0871 107.84C61.7791 109.81 65.9633 108.333 67.6863 104.887Z" fill="#00BE7E" fill-opacity="0.5"/>
<path d="M55.1355 128.762C56.8584 125.316 55.6277 121.132 52.1819 119.163C48.7361 117.44 44.5518 118.671 42.5827 122.117C40.8598 125.562 42.0905 129.747 45.5363 131.716C48.9822 133.439 53.1664 132.208 55.1355 128.762Z" fill="#00BE7E" fill-opacity="0.5"/>
<path d="M42.3346 152.637C44.0575 149.191 42.8269 145.007 39.381 143.038C35.9352 141.315 31.7509 142.545 29.7819 145.991C29.0435 147.468 28.7973 148.945 29.0435 150.422C31.2587 152.391 33.9661 154.606 36.4274 156.329C38.8888 156.083 41.1039 154.852 42.3346 152.637Z" fill="#00BE7E" fill-opacity="0.5"/>
<path d="M91.0681 10.3723C92.791 6.92648 91.5604 2.74224 88.1145 0.773181C84.6687 -0.949742 80.4844 0.28092 78.5154 3.72677C76.7924 7.17261 78.0231 11.3569 81.4689 13.3259C85.1609 15.0488 89.3452 13.8182 91.0681 10.3723Z" fill="#00BE7E" fill-opacity="0.5"/>
<path d="M78.5173 34.247C80.2403 30.8011 79.0096 26.6169 75.5637 24.6478C72.1179 22.9249 67.9336 24.1555 65.9646 27.6014C64.2417 31.0472 65.4723 35.2315 68.9182 37.2005C72.364 38.9235 76.5483 37.6928 78.5173 34.247Z" fill="#00BE7E" fill-opacity="0.5"/>
<path d="M65.7175 57.8759C67.4404 54.43 66.2098 50.2458 62.7639 48.2767C59.3181 46.5538 55.1338 47.7845 53.1648 51.2303C51.4419 54.6762 52.6725 58.8604 56.1184 60.8294C59.5642 62.5524 63.7485 61.3217 65.7175 57.8759Z" fill="#00BE7E" fill-opacity="0.5"/>
<path d="M52.9187 81.7505C54.6416 78.3046 53.4109 74.1204 49.9651 72.1514C46.5192 70.4284 42.335 71.6591 40.366 75.1049C38.643 78.5508 39.8737 82.735 43.3195 84.7041C46.7654 86.427 51.1958 85.1963 52.9187 81.7505Z" fill="#00BE7E" fill-opacity="0.5"/>
<path d="M40.1199 105.625C41.8428 102.179 40.6121 97.9952 37.1663 96.0261C33.7204 94.3032 29.5362 95.5338 27.5671 98.9797C25.8442 102.426 27.0749 106.61 30.5207 108.579C33.9666 110.302 38.3969 108.825 40.1199 105.625Z" fill="#00BE7E" fill-opacity="0.5"/>
<path d="M27.3201 129.254C29.043 125.808 27.8123 121.624 24.3665 119.655C20.9206 117.932 16.7364 119.163 14.7673 122.608C13.0444 126.054 14.2751 130.239 17.7209 132.208C21.4129 133.931 25.5971 132.7 27.3201 129.254Z" fill="#00BE7E" fill-opacity="0.5"/>
</svg>
