<svg width="65" height="65" viewBox="0 0 65 65" fill="none" xmlns="http://www.w3.org/2000/svg">
<ellipse cx="32.5" cy="32.4764" rx="32.5" ry="32.3645" fill="#0075FF" fill-opacity="0.1"/>
<path d="M32.9998 15.5312C42.1998 15.5312 49.6665 23.0396 49.6665 32.2911C49.6665 41.5593 42.1998 49.051 32.9998 49.051C23.7831 49.051 16.3331 41.5593 16.3331 32.2911C16.3331 23.0396 23.7831 15.5312 32.9998 15.5312ZM39.4165 26.7771C39.5998 26.1905 39.0665 25.6374 38.4831 25.8217L29.9498 28.5033C29.5998 28.6206 29.3165 28.8888 29.2165 29.2408L26.5498 37.8386C26.3665 38.4084 26.9165 38.9615 27.4831 38.7771L35.9831 36.0956C36.3331 35.995 36.6165 35.7101 36.7165 35.3581L39.4165 26.7771Z" fill="#2F80ED" fill-opacity="0.5"/>
</svg>
