<svg width="20" height="20" viewBox="0 0 20 20" fill="none" xmlns="http://www.w3.org/2000/svg">
<path d="M14.3401 -0.00012207C17.7301 -0.00012207 20.0001 2.37988 20.0001 5.91988V14.0909C20.0001 17.6199 17.7301 19.9999 14.3401 19.9999H5.67012C2.28012 19.9999 0.00012207 17.6199 0.00012207 14.0909V5.91988C0.00012207 2.37988 2.28012 -0.00012207 5.67012 -0.00012207H14.3401ZM14.1801 6.99988C13.8401 6.65988 13.2801 6.65988 12.9401 6.99988L8.81012 11.1299L7.06012 9.37988C6.72012 9.03988 6.16012 9.03988 5.82012 9.37988C5.48012 9.71988 5.48012 10.2699 5.82012 10.6199L8.20012 12.9899C8.37012 13.1599 8.59012 13.2399 8.81012 13.2399C9.04012 13.2399 9.26012 13.1599 9.43012 12.9899L14.1801 8.23988C14.5201 7.89988 14.5201 7.34988 14.1801 6.99988Z" fill="#0075FF"/>
</svg>
